<svg width="1715" height="765" xmlns="http://www.w3.org/2000/svg" xmlns:xlink="http://www.w3.org/1999/xlink" xml:space="preserve" overflow="hidden"><defs><clipPath id="clip0"><rect x="291" y="802" width="1715" height="765"/></clipPath></defs><g clip-path="url(#clip0)" transform="translate(-291 -802)"><path d="M292 1048 292 1524.67" stroke="#4472C4" stroke-width="2.29167" stroke-miterlimit="8" fill="none" fill-rule="evenodd"/><path d="M292 1525 1217.21 1525" stroke="#4472C4" stroke-width="2.29167" stroke-miterlimit="8" fill="none" fill-rule="evenodd"/><path d="M1217.5 1522.5C1217.5 1499.3 1236.3 1480.5 1259.5 1480.5 1282.7 1480.5 1301.5 1499.3 1301.5 1522.5 1301.5 1545.7 1282.7 1564.5 1259.5 1564.5 1236.3 1564.5 1217.5 1545.7 1217.5 1522.5Z" stroke="#2F528F" stroke-width="4.58333" stroke-miterlimit="8" fill="#4472C4" fill-rule="evenodd"/><path d="M0 0 454.263 458.354" stroke="#4472C4" stroke-width="2.29167" stroke-miterlimit="8" fill="none" fill-rule="evenodd" transform="matrix(1 0 0 -1 1289 1492.35)"/><path d="M292 1176 1606.14 1176" stroke="#4472C4" stroke-width="2.29167" stroke-miterlimit="8" fill="none" fill-rule="evenodd"/><path d="M1.14583-2.01938e-06 1.14615 181.86-1.14551 181.86-1.14583 2.01938e-06ZM13.7503 177.277 0.000360892 204.777-13.7497 177.277Z" fill="#4472C4" transform="matrix(1 0 0 -1 1742 1034.78)"/><text font-family="Calibri,Calibri_MSFontService,sans-serif" font-weight="400" font-size="83" transform="matrix(1 0 0 1 1763.04 942)">40 <tspan font-size="83" x="102.552" y="0">kN</tspan></text></g></svg>